<?xml version="1.0" encoding="UTF-8" standalone="no"?>
<svg
   xmlns:dc="http://purl.org/dc/elements/1.1/"
   xmlns:cc="http://creativecommons.org/ns#"
   xmlns:rdf="http://www.w3.org/1999/02/22-rdf-syntax-ns#"
   xmlns:svg="http://www.w3.org/2000/svg"
   xmlns="http://www.w3.org/2000/svg"
   xmlns:sodipodi="http://sodipodi.sourceforge.net/DTD/sodipodi-0.dtd"
   xmlns:inkscape="http://www.inkscape.org/namespaces/inkscape"
   viewBox="0 0 62.860001 44"
   preserveAspectRatio="xMidYMid meet"
   focusable="false"
   style="display:block"
   class="style-scope ytd-topbar-logo-renderer"
   version="1.1"
   id="svg3825"
   sodipodi:docname="logo-color.svg"
   width="62.860001"
   height="44"
   inkscape:version="0.92.3 (2405546, 2018-03-11)">
  <metadata
     id="metadata3831">
    <rdf:RDF>
      <cc:Work
         rdf:about="">
        <dc:format>image/svg+xml</dc:format>
        <dc:type
           rdf:resource="http://purl.org/dc/dcmitype/StillImage" />
        <dc:title></dc:title>
      </cc:Work>
    </rdf:RDF>
  </metadata>
  <defs
     id="defs3829" />
  <sodipodi:namedview
     pagecolor="#ffffff"
     bordercolor="#666666"
     borderopacity="1"
     objecttolerance="10"
     gridtolerance="10"
     guidetolerance="10"
     inkscape:pageopacity="0"
     inkscape:pageshadow="2"
     inkscape:window-width="1920"
     inkscape:window-height="1016"
     id="namedview3827"
     showgrid="false"
     inkscape:zoom="4.385"
     inkscape:cx="-55.850408"
     inkscape:cy="33.632915"
     inkscape:window-x="0"
     inkscape:window-y="27"
     inkscape:window-maximized="1"
     inkscape:current-layer="svg3825"
     fit-margin-top="0"
     fit-margin-left="0"
     fit-margin-right="0"
     fit-margin-bottom="0" />
  <path
     d="M 61.55,6.87 C 60.83,4.17 58.7,2.04 55.99,1.31 51.09,0 31.43,0 31.43,0 31.43,0 11.78,0 6.87,1.31 4.17,2.03 2.04,4.16 1.31,6.87 0,11.77 0,22 0,22 c 0,0 0,10.23 1.31,15.13 0.72,2.7 2.85,4.83 5.56,5.56 C 11.78,44 31.43,44 31.43,44 c 0,0 19.66,0 24.56,-1.31 2.7,-0.72 4.83,-2.85 5.56,-5.56 1.31,-4.9 1.31,-15.13 1.31,-15.13 0,0 0,-10.23 -1.31,-15.13 z"
     class="style-scope ytd-topbar-logo-renderer"
     id="path3800"
     inkscape:connector-curvature="0"
     style="fill:#ff0000" />
  <g
     id="g3994"
     transform="matrix(0.04653109,0,0,0.04653109,18.917905,9.487906)"
     style="fill:#ffffff;fill-opacity:1">
    <g
       id="g3936"
       style="fill:#ffffff;fill-opacity:1">
	<g
   id="g3934"
   style="fill:#ffffff;fill-opacity:1">
		<path
   id="path3930"
   d="M 463.091,466.114 H 74.854 c -11.857,0 -21.497,9.716 -21.497,21.497 v 28.688 c 0,11.857 9.716,21.496 21.497,21.496 h 388.084 c 11.857,0 21.496,-9.716 21.496,-21.496 v -28.688 c 0.231,-11.934 -9.485,-21.497 -21.343,-21.497 z"
   inkscape:connector-curvature="0"
   style="fill:#ffffff;fill-opacity:1" />

		<path
   id="path3932"
   d="m 253.94,427.635 c 4.208,4.208 9.716,6.35 15.147,6.35 5.508,0 11.016,-2.142 15.147,-6.35 L 431.267,280.602 c 8.339,-8.338 8.339,-21.955 0,-30.447 l -20.349,-20.349 c -8.339,-8.339 -21.956,-8.339 -30.447,0 l -75.582,75.659 V 21.497 C 304.889,9.639 295.173,0 283.393,0 H 254.705 C 242.848,0 233.208,9.562 233.208,21.497 V 305.541 L 157.55,229.882 c -8.339,-8.338 -22.032,-8.338 -30.447,0 l -20.349,20.349 c -8.338,8.338 -8.338,22.032 0,30.447 z"
   inkscape:connector-curvature="0"
   style="fill:#ffffff;fill-opacity:1" />

	</g>

</g>
    <g
       id="g3938"
       style="fill:#ffffff;fill-opacity:1">
</g>
    <g
       id="g3940"
       style="fill:#ffffff;fill-opacity:1">
</g>
    <g
       id="g3942"
       style="fill:#ffffff;fill-opacity:1">
</g>
    <g
       id="g3944"
       style="fill:#ffffff;fill-opacity:1">
</g>
    <g
       id="g3946"
       style="fill:#ffffff;fill-opacity:1">
</g>
    <g
       id="g3948"
       style="fill:#ffffff;fill-opacity:1">
</g>
    <g
       id="g3950"
       style="fill:#ffffff;fill-opacity:1">
</g>
    <g
       id="g3952"
       style="fill:#ffffff;fill-opacity:1">
</g>
    <g
       id="g3954"
       style="fill:#ffffff;fill-opacity:1">
</g>
    <g
       id="g3956"
       style="fill:#ffffff;fill-opacity:1">
</g>
    <g
       id="g3958"
       style="fill:#ffffff;fill-opacity:1">
</g>
    <g
       id="g3960"
       style="fill:#ffffff;fill-opacity:1">
</g>
    <g
       id="g3962"
       style="fill:#ffffff;fill-opacity:1">
</g>
    <g
       id="g3964"
       style="fill:#ffffff;fill-opacity:1">
</g>
    <g
       id="g3966"
       style="fill:#ffffff;fill-opacity:1">
</g>
  </g>
</svg>
