<?xml version="1.0" standalone="no"?>
<!DOCTYPE svg PUBLIC "-//W3C//DTD SVG 20010904//EN"
 "http://www.w3.org/TR/2001/REC-SVG-20010904/DTD/svg10.dtd">
<svg version="1.0" xmlns="http://www.w3.org/2000/svg"
 width="1008.000000pt" height="1008.000000pt" viewBox="0 0 1008.000000 1008.000000"
 preserveAspectRatio="xMidYMid meet">
<metadata>
Created by potrace 1.11, written by Peter Selinger 2001-2013
</metadata>
<g transform="translate(0.000000,1008.000000) scale(0.100000,-0.100000)"
fill="#000000" stroke="none">
<path d="M4010 8559 c-1626 -32 -2639 -108 -2985 -224 -180 -60 -378 -187
-508 -324 -203 -215 -301 -441 -372 -855 -109 -638 -166 -1749 -135 -2636 30
-864 95 -1491 195 -1879 94 -364 322 -654 645 -821 171 -87 329 -128 660 -169
842 -105 2843 -163 4485 -131 1732 34 2705 106 3062 225 178 60 377 187 506
324 203 215 301 441 372 855 109 638 166 1749 135 2636 -30 864 -95 1491 -195
1879 -126 489 -494 839 -988 941 -666 137 -2882 218 -4877 179z m1210 -1532
c30 -16 51 -37 67 -67 l23 -43 0 -1069 c0 -587 3 -1068 7 -1068 4 0 140 132
303 294 324 323 324 323 413 296 60 -17 240 -197 257 -257 28 -94 55 -61 -578
-696 -317 -318 -589 -585 -604 -593 -34 -18 -89 -18 -131 0 -18 8 -275 258
-604 587 -622 624 -604 603 -583 694 7 32 30 61 122 151 98 97 119 113 155
119 83 13 96 4 411 -308 l292 -291 0 1055 c0 587 4 1071 9 1093 11 46 63 103
106 115 16 5 89 10 161 10 118 1 135 -1 174 -22z m1354 -3486 c62 -39 76 -81
76 -242 0 -123 -2 -140 -23 -179 -16 -30 -37 -51 -67 -67 l-43 -23 -1477 0
-1477 0 -43 23 c-30 16 -51 37 -67 67 -21 39 -23 56 -23 178 0 116 3 142 20
178 21 43 53 70 99 85 14 4 692 7 1506 6 l1480 -2 39 -24z"/>
</g>
</svg>
